<svg width="55" height="54" viewBox="0 0 55 54" fill="none" xmlns="http://www.w3.org/2000/svg">
<circle cx="27.25" cy="27" r="27" fill="#F5F9FA"/>
<path fill-rule="evenodd" clip-rule="evenodd" d="M36.5227 29.7351C36.9357 29.7661 37.2447 30.1271 37.2137 30.5401L37.0237 33.0491C36.8667 35.1191 35.1197 36.7401 33.0447 36.7401H21.4447C19.3697 36.7401 17.6227 35.1191 17.4657 33.0491L17.2757 30.5401C17.2447 30.1271 17.5547 29.7661 17.9677 29.7351C18.3827 29.7201 18.7407 30.0131 18.7727 30.4271L18.9617 32.9351C19.0597 34.2271 20.1497 35.2401 21.4447 35.2401H33.0447C34.3397 35.2401 35.4307 34.2271 35.5277 32.9351L35.7177 30.4271C35.7497 30.0131 36.1167 29.7191 36.5227 29.7351ZM28.5349 17C30.0378 17 31.283 18.1263 31.4705 19.579L33.44 19.5799C35.536 19.5799 37.24 21.2889 37.24 23.3909V26.8299C37.24 27.0969 37.098 27.3429 36.869 27.4769C34.4007 28.9224 31.2739 29.7655 27.9945 29.878L27.9949 31.6766C27.9949 32.0906 27.6589 32.4266 27.2449 32.4266C26.8309 32.4266 26.4949 32.0906 26.4949 31.6766L26.4943 29.8782C23.2182 29.7668 20.0912 28.9235 17.621 27.4769C17.391 27.3429 17.25 27.0969 17.25 26.8299V23.3809C17.25 21.2849 18.959 19.5799 21.06 19.5799L23.0193 19.579C23.2068 18.1263 24.452 17 25.9549 17H28.5349ZM33.44 21.0799H21.06C19.786 21.0799 18.75 22.1119 18.75 23.3809V26.3929C21.1237 27.6827 24.1162 28.3895 27.231 28.3909L27.2449 28.3896L27.256 28.39L27.7322 28.385C30.678 28.3149 33.4881 27.616 35.74 26.3929V23.3909C35.74 22.1159 34.709 21.0799 33.44 21.0799ZM28.5349 18.5H25.9549C25.2816 18.5 24.7132 18.9583 24.5453 19.5793H29.9445C29.7766 18.9583 29.2082 18.5 28.5349 18.5Z" fill="#071929"/>
</svg>
