<svg width="41" height="41" viewBox="0 0 41 41" fill="none" xmlns="http://www.w3.org/2000/svg">
<rect width="40.6522" height="40.6522" rx="5.80391" fill="#E8D9FC"/>
<path d="M27.5 21.6504V25.3504C27.5 28.4704 24.59 31.0004 21 31.0004C17.41 31.0004 14.5 28.4704 14.5 25.3504V21.6504C14.5 24.7704 17.41 27.0004 21 27.0004C24.59 27.0004 27.5 24.7704 27.5 21.6504Z" stroke="#9747FF" stroke-width="1.5" stroke-linecap="round" stroke-linejoin="round"/>
<path d="M27.5 16.65C27.5 17.56 27.25 18.4 26.81 19.12C25.74 20.88 23.54 22 21 22C18.46 22 16.26 20.88 15.19 19.12C14.75 18.4 14.5 17.56 14.5 16.65C14.5 15.09 15.23 13.68 16.4 12.66C17.58 11.63 19.2 11 21 11C22.8 11 24.42 11.63 25.6 12.65C26.77 13.68 27.5 15.09 27.5 16.65Z" stroke="#9747FF" stroke-width="1.5" stroke-linecap="round" stroke-linejoin="round"/>
<path d="M27.5 16.65V21.65C27.5 24.77 24.59 27 21 27C17.41 27 14.5 24.77 14.5 21.65V16.65C14.5 13.53 17.41 11 21 11C22.8 11 24.42 11.63 25.6 12.65C26.77 13.68 27.5 15.09 27.5 16.65Z" stroke="#9747FF" stroke-width="1.5" stroke-linecap="round" stroke-linejoin="round"/>
</svg>
