<svg width="37" height="37" viewBox="0 0 37 37" fill="none" xmlns="http://www.w3.org/2000/svg">
<circle cx="18.5" cy="18.5" r="18.5" fill="#F9AF21"/>
<path fill-rule="evenodd" clip-rule="evenodd" d="M25.1163 10.6536C25.1663 10.6926 26.8393 11.9926 26.8393 11.9926C27.4473 12.3546 27.9223 13.0016 28.1023 13.7676C28.2813 14.5256 28.1513 15.3076 27.7343 15.9686C27.7315 15.9731 27.7287 15.9774 27.7191 15.9904L27.7115 16.0004C27.6439 16.0896 27.3496 16.4616 25.8646 18.3222C25.8508 18.3466 25.8351 18.3695 25.8181 18.3916C25.793 18.4244 25.7658 18.4544 25.7367 18.4818C25.6354 18.6093 25.5284 18.7433 25.4159 18.8842L25.188 19.1697C24.7177 19.7587 24.1599 20.4571 23.4981 21.2855L23.1584 21.7106C21.8807 23.3097 20.2444 25.3572 18.1483 27.9796C17.6893 28.5516 17.0013 28.8846 16.2623 28.8936L12.6233 28.9396H12.6133C12.2663 28.9396 11.9643 28.7016 11.8833 28.3626L11.0643 24.8916C10.8953 24.1726 11.0633 23.4306 11.5243 22.8546L20.9443 11.0726C20.9483 11.0686 20.9513 11.0636 20.9553 11.0596C21.9883 9.82464 23.8563 9.64264 25.1163 10.6536ZM19.894 14.787L12.6953 23.7916C12.5243 24.0056 12.4613 24.2816 12.5243 24.5466L13.2053 27.4316L16.2443 27.3936C16.5333 27.3906 16.8003 27.2616 16.9773 27.0416C17.8888 25.9012 19.0343 24.4679 20.2121 22.994L20.6288 22.4726L21.0462 21.9502C22.1508 20.5679 23.2421 19.2021 24.1551 18.0589L19.894 14.787ZM22.1103 12.0166L20.831 13.615L25.0918 16.8859C25.9119 15.8587 26.4514 15.1821 26.5013 15.1176C26.6653 14.8516 26.7293 14.4756 26.6433 14.1136C26.5553 13.7426 26.3243 13.4276 25.9913 13.2266C25.9203 13.1776 24.2353 11.8696 24.1833 11.8286C23.5493 11.3206 22.6243 11.4086 22.1103 12.0166Z" fill="#071929"/>
</svg>
