<svg width="80" height="80" viewBox="0 0 80 80" fill="none" xmlns="http://www.w3.org/2000/svg">
<rect width="80" height="80" rx="13" fill="#F5F9FA"/>
<path d="M42.6666 38.668H34.6666M37.3333 44.0013H34.6666M45.3333 33.3346H34.6666M50.6666 38.0013V33.068C50.6666 30.8278 50.6666 29.7077 50.2306 28.852C49.8471 28.0994 49.2352 27.4874 48.4825 27.1039C47.6269 26.668 46.5068 26.668 44.2666 26.668H35.7333C33.493 26.668 32.3729 26.668 31.5173 27.1039C30.7646 27.4874 30.1527 28.0994 29.7692 28.852C29.3333 29.7077 29.3333 30.8278 29.3333 33.068V46.9346C29.3333 49.1748 29.3333 50.295 29.7692 51.1506C30.1527 51.9032 30.7646 52.5152 31.5173 52.8987C32.3729 53.3346 33.493 53.3346 35.7333 53.3346H39.3333M53.3333 53.3346L51.3333 51.3346M52.6666 48.0013C52.6666 50.5786 50.5772 52.668 47.9999 52.668C45.4226 52.668 43.3333 50.5786 43.3333 48.0013C43.3333 45.424 45.4226 43.3346 47.9999 43.3346C50.5772 43.3346 52.6666 45.424 52.6666 48.0013Z" stroke="#53717A" stroke-width="2" stroke-linecap="round" stroke-linejoin="round"/>
</svg>
