<svg width="55" height="54" viewBox="0 0 55 54" fill="none" xmlns="http://www.w3.org/2000/svg">
<circle cx="27.75" cy="27" r="27" fill="#F5F9FA"/>
<g clip-path="url(#clip0_10388_75451)">
<path d="M34.4167 34.9998H26.4167V29.6665H25.0833V34.9998H21.0833V29.6665H19.75V34.9998C19.75 35.3535 19.8905 35.6926 20.1405 35.9426C20.3906 36.1927 20.7297 36.3332 21.0833 36.3332H34.4167C34.7703 36.3332 35.1094 36.1927 35.3595 35.9426C35.6095 35.6926 35.75 35.3535 35.75 34.9998V29.6665H34.4167V34.9998Z" fill="black"/>
<path d="M38.2764 23.8465L35.5563 18.4065C35.446 18.1844 35.2758 17.9974 35.065 17.8667C34.8542 17.736 34.6111 17.6666 34.363 17.6665H21.1364C20.8883 17.6666 20.6452 17.736 20.4344 17.8667C20.2236 17.9974 20.0534 18.1844 19.943 18.4065L17.223 23.8465C17.1301 24.0328 17.0822 24.2383 17.083 24.4465V26.4998C17.0824 26.8114 17.1909 27.1133 17.3897 27.3532C17.6835 27.6899 18.0463 27.9595 18.4535 28.1435C18.8607 28.3276 19.3028 28.4218 19.7497 28.4198C20.4789 28.421 21.1858 28.1688 21.7497 27.7065C22.3136 28.1691 23.0203 28.4219 23.7497 28.4219C24.479 28.4219 25.1858 28.1691 25.7497 27.7065C26.3136 28.1691 27.0203 28.4219 27.7497 28.4219C28.479 28.4219 29.1858 28.1691 29.7497 27.7065C30.3136 28.1691 31.0203 28.4219 31.7497 28.4219C32.479 28.4219 33.1858 28.1691 33.7497 27.7065C34.3791 28.2233 35.1844 28.476 35.9963 28.4113C36.8081 28.3467 37.5633 27.9698 38.103 27.3598C38.3042 27.1209 38.4151 26.8189 38.4164 26.5065V24.4465C38.4172 24.2383 38.3692 24.0328 38.2764 23.8465ZM35.7497 27.0865C35.4649 27.0858 35.1845 27.0171 34.9317 26.8861C34.6789 26.755 34.461 26.5655 34.2964 26.3332L33.7497 25.5865L33.2097 26.3332C33.0419 26.5619 32.8225 26.7479 32.5695 26.8761C32.3164 27.0043 32.0367 27.0711 31.753 27.0711C31.4693 27.0711 31.1896 27.0043 30.9366 26.8761C30.6835 26.7479 30.4642 26.5619 30.2964 26.3332L29.7497 25.5865L29.2097 26.3332C29.0419 26.5619 28.8225 26.7479 28.5695 26.8761C28.3164 27.0043 28.0367 27.0711 27.753 27.0711C27.4693 27.0711 27.1896 27.0043 26.9366 26.8761C26.6835 26.7479 26.4642 26.5619 26.2964 26.3332L25.7497 25.5865L25.2097 26.3332C25.0419 26.5619 24.8225 26.7479 24.5695 26.8761C24.3164 27.0043 24.0367 27.0711 23.753 27.0711C23.4693 27.0711 23.1896 27.0043 22.9366 26.8761C22.6835 26.7479 22.4642 26.5619 22.2964 26.3332L21.7497 25.5865L21.203 26.3332C21.0383 26.5655 20.8205 26.755 20.5677 26.8861C20.3149 27.0171 20.0344 27.0858 19.7497 27.0865C19.4984 27.0896 19.2495 27.0388 19.0195 26.9376C18.7895 26.8364 18.5838 26.6871 18.4164 26.4998V24.4465L21.1364 18.9998H34.363L37.083 24.4398V26.4798C36.9165 26.6698 36.7115 26.8221 36.4817 26.9267C36.2518 27.0313 36.0022 27.0858 35.7497 27.0865V27.0865Z" fill="black"/>
</g>
<defs>
<clipPath id="clip0_10388_75451">
<rect width="24" height="24" fill="white" transform="translate(15.75 15)"/>
</clipPath>
</defs>
</svg>
