<svg width="55" height="54" viewBox="0 0 55 54" fill="none" xmlns="http://www.w3.org/2000/svg">
<circle cx="27.75" cy="27" r="27" fill="#0F375A"/>
<g clip-path="url(#clip0_10388_78753)">
<path d="M34.4167 34.9998H26.4167V29.6665H25.0833V34.9998H21.0833V29.6665H19.75V34.9998C19.75 35.3535 19.8905 35.6926 20.1405 35.9426C20.3906 36.1927 20.7297 36.3332 21.0833 36.3332H34.4167C34.7703 36.3332 35.1094 36.1927 35.3595 35.9426C35.6095 35.6926 35.75 35.3535 35.75 34.9998V29.6665H34.4167V34.9998Z" fill="white"/>
<path d="M38.2773 23.8465L35.5573 18.4065C35.4469 18.1844 35.2768 17.9974 35.066 17.8667C34.8552 17.736 34.612 17.6666 34.364 17.6665H21.1373C20.8893 17.6666 20.6462 17.736 20.4354 17.8667C20.2245 17.9974 20.0544 18.1844 19.944 18.4065L17.224 23.8465C17.1311 24.0328 17.0832 24.2383 17.084 24.4465V26.4998C17.0834 26.8114 17.1919 27.1133 17.3907 27.3532C17.6844 27.6899 18.0473 27.9595 18.4545 28.1435C18.8617 28.3276 19.3038 28.4218 19.7507 28.4198C20.4798 28.421 21.1868 28.1688 21.7507 27.7065C22.3145 28.1691 23.0213 28.4219 23.7507 28.4219C24.48 28.4219 25.1868 28.1691 25.7507 27.7065C26.3145 28.1691 27.0213 28.4219 27.7507 28.4219C28.48 28.4219 29.1868 28.1691 29.7507 27.7065C30.3145 28.1691 31.0213 28.4219 31.7507 28.4219C32.48 28.4219 33.1868 28.1691 33.7507 27.7065C34.3801 28.2233 35.1854 28.476 35.9973 28.4113C36.8091 28.3467 37.5643 27.9698 38.104 27.3598C38.3052 27.1209 38.4161 26.8189 38.4173 26.5065V24.4465C38.4181 24.2383 38.3702 24.0328 38.2773 23.8465ZM35.7507 27.0865C35.4659 27.0858 35.1854 27.0171 34.9326 26.8861C34.6798 26.755 34.462 26.5655 34.2973 26.3332L33.7507 25.5865L33.2107 26.3332C33.0428 26.5619 32.8235 26.7479 32.5705 26.8761C32.3174 27.0043 32.0377 27.0711 31.754 27.0711C31.4703 27.0711 31.1906 27.0043 30.9375 26.8761C30.6845 26.7479 30.4651 26.5619 30.2973 26.3332L29.7507 25.5865L29.2107 26.3332C29.0428 26.5619 28.8235 26.7479 28.5705 26.8761C28.3174 27.0043 28.0377 27.0711 27.754 27.0711C27.4703 27.0711 27.1906 27.0043 26.9375 26.8761C26.6845 26.7479 26.4651 26.5619 26.2973 26.3332L25.7507 25.5865L25.2107 26.3332C25.0428 26.5619 24.8235 26.7479 24.5705 26.8761C24.3174 27.0043 24.0377 27.0711 23.754 27.0711C23.4703 27.0711 23.1906 27.0043 22.9375 26.8761C22.6845 26.7479 22.4651 26.5619 22.2973 26.3332L21.7507 25.5865L21.204 26.3332C21.0393 26.5655 20.8215 26.755 20.5687 26.8861C20.3159 27.0171 20.0354 27.0858 19.7507 27.0865C19.4994 27.0896 19.2504 27.0388 19.0205 26.9376C18.7905 26.8364 18.5848 26.6871 18.4173 26.4998V24.4465L21.1373 18.9998H34.364L37.084 24.4398V26.4798C36.9175 26.6698 36.7125 26.8221 36.4826 26.9267C36.2527 27.0313 36.0032 27.0858 35.7507 27.0865Z" fill="white"/>
</g>
<defs>
<clipPath id="clip0_10388_78753">
<rect width="24" height="24" fill="white" transform="translate(15.75 15)"/>
</clipPath>
</defs>
</svg>
