<svg width="41" height="41" viewBox="0 0 41 41" fill="none" xmlns="http://www.w3.org/2000/svg">
<rect width="40.6522" height="40.6522" rx="5.80391" fill="#FDEED1"/>
<path d="M27.04 22.55C26.62 22.96 26.38 23.55 26.44 24.18C26.53 25.26 27.52 26.05 28.6 26.05H30.5V27.24C30.5 29.31 28.81 31 26.74 31H15.26C13.19 31 11.5 29.31 11.5 27.24V20.51C11.5 18.44 13.19 16.75 15.26 16.75H26.74C28.81 16.75 30.5 18.44 30.5 20.51V21.95H28.48C27.92 21.95 27.41 22.17 27.04 22.55Z" stroke="#F4A100" stroke-width="1.5" stroke-linecap="round" stroke-linejoin="round"/>
<path d="M11.5 21.4103V16.8403C11.5 15.6503 12.23 14.5903 13.34 14.1703L21.28 11.1703C22.52 10.7003 23.85 11.6203 23.85 12.9503V16.7503" stroke="#F4A100" stroke-width="1.5" stroke-linecap="round" stroke-linejoin="round"/>
<path d="M31.5588 22.9702V25.0302C31.5588 25.5802 31.1188 26.0302 30.5588 26.0502H28.5988C27.5188 26.0502 26.5288 25.2602 26.4388 24.1802C26.3788 23.5502 26.6188 22.9602 27.0388 22.5502C27.4088 22.1702 27.9188 21.9502 28.4788 21.9502H30.5588C31.1188 21.9702 31.5588 22.4202 31.5588 22.9702Z" stroke="#F4A100" stroke-width="1.5" stroke-linecap="round" stroke-linejoin="round"/>
<path d="M16 21H23" stroke="#F4A100" stroke-width="1.5" stroke-linecap="round" stroke-linejoin="round"/>
</svg>
