<svg width="152" height="121" viewBox="0 0 152 121" fill="none" xmlns="http://www.w3.org/2000/svg">
<rect width="152" height="121" fill="white"/>
<path fill-rule="evenodd" clip-rule="evenodd" d="M125.856 39.3252C128.206 39.3252 130.112 41.2213 130.112 43.5602C130.112 45.8991 128.206 47.7952 125.856 47.7952H101.536C103.886 47.7952 105.792 49.6913 105.792 52.0302C105.792 54.3691 103.886 56.2652 101.536 56.2652H114.912C117.262 56.2652 119.168 58.1613 119.168 60.5002C119.168 62.8391 117.262 64.7352 114.912 64.7352H108.726C105.762 64.7352 103.36 66.6313 103.36 68.9702C103.36 70.5295 104.576 71.9411 107.008 73.2052C109.358 73.2052 111.264 75.1013 111.264 77.4402C111.264 79.7791 109.358 81.6752 107.008 81.6752H56.5439C54.1934 81.6752 52.2879 79.7791 52.2879 77.4402C52.2879 75.1013 54.1934 73.2052 56.5439 73.2052H32.8319C30.4814 73.2052 28.5759 71.3091 28.5759 68.9702C28.5759 66.6313 30.4814 64.7352 32.8319 64.7352H57.1519C59.5025 64.7352 61.4079 62.8391 61.4079 60.5002C61.4079 58.1613 59.5025 56.2652 57.1519 56.2652H41.9519C39.6014 56.2652 37.6959 54.3691 37.6959 52.0302C37.6959 49.6913 39.6014 47.7952 41.9519 47.7952H66.2719C63.9214 47.7952 62.0159 45.8991 62.0159 43.5602C62.0159 41.2213 63.9214 39.3252 66.2719 39.3252H125.856ZM125.856 56.2652C128.206 56.2652 130.112 58.1613 130.112 60.5002C130.112 62.8391 128.206 64.7352 125.856 64.7352C123.505 64.7352 121.6 62.8391 121.6 60.5002C121.6 58.1613 123.505 56.2652 125.856 56.2652Z" fill="#DFEBF5"/>
<path fill-rule="evenodd" clip-rule="evenodd" d="M93.4083 38.7196L99.0847 79.7832L99.5949 83.9028C99.7593 85.23 98.8125 86.4373 97.4802 86.5995L61.8974 90.9307C60.5651 91.0929 59.3518 90.1485 59.1874 88.8213L53.6829 44.3778C53.6007 43.7142 54.0741 43.1105 54.7402 43.0295C54.7445 43.0289 54.7487 43.0285 54.7529 43.028L57.705 42.6999M60.0962 42.4519L62.8848 42.1417L60.0962 42.4519Z" fill="white"/>
<path d="M94.6467 38.5499C94.5521 37.8661 93.921 37.3877 93.2371 37.4814C92.5531 37.5751 92.0753 38.2054 92.1699 38.8893L94.6467 38.5499ZM99.0847 79.7832L100.325 79.631C100.325 79.6252 100.324 79.6193 100.323 79.6135L99.0847 79.7832ZM99.5949 83.9028L100.836 83.7507L99.5949 83.9028ZM97.4802 86.5995L97.6327 87.8402L97.4802 86.5995ZM61.8974 90.9307L62.05 92.1714L61.8974 90.9307ZM59.1874 88.8213L60.4281 88.6692L59.1874 88.8213ZM53.6829 44.3778L54.9236 44.2256L53.6829 44.3778ZM54.7529 43.028L54.8925 44.2702L54.7529 43.028ZM57.8445 43.942C58.5307 43.8658 59.0244 43.2478 58.9473 42.5618C58.8703 41.8757 58.2515 41.3814 57.5654 41.4577L57.8445 43.942ZM59.9565 41.2098C59.2704 41.2861 58.7767 41.9041 58.8539 42.5901C58.931 43.2762 59.5498 43.7704 60.2359 43.6941L59.9565 41.2098ZM63.0245 43.3839C63.7106 43.3076 64.2043 42.6896 64.1272 42.0035C64.05 41.3175 63.4313 40.8233 62.7451 40.8996L63.0245 43.3839ZM92.1699 38.8893L97.8463 79.9528L100.323 79.6135L94.6467 38.5499L92.1699 38.8893ZM97.844 79.9353L98.3542 84.055L100.836 83.7507L100.325 79.631L97.844 79.9353ZM98.3542 84.055C98.4332 84.6923 97.9785 85.2796 97.3277 85.3588L97.6327 87.8402C99.6465 87.595 101.085 85.7676 100.836 83.7507L98.3542 84.055ZM97.3277 85.3588L61.7449 89.6901L62.05 92.1714L97.6327 87.8402L97.3277 85.3588ZM61.7449 89.6901C61.0932 89.7694 60.5072 89.3074 60.4281 88.6692L57.9467 88.9735C58.1964 90.9896 60.037 92.4164 62.05 92.1714L61.7449 89.6901ZM60.4281 88.6692L54.9236 44.2256L52.4422 44.53L57.9467 88.9735L60.4281 88.6692ZM54.9236 44.2256C54.924 44.2294 54.9238 44.2362 54.9218 44.2434C54.92 44.2498 54.9174 44.2541 54.9151 44.257C54.9129 44.2599 54.9097 44.2629 54.905 44.2656C54.8996 44.2687 54.8946 44.2699 54.8928 44.2701L54.5877 41.7888C53.2401 41.9528 52.2745 43.1766 52.4422 44.53L54.9236 44.2256ZM54.8928 44.2701L54.8925 44.2702L54.6133 41.7858C54.6048 41.7868 54.5962 41.7878 54.5877 41.7888L54.8928 44.2701ZM54.8925 44.2702L57.8445 43.942L57.5654 41.4577L54.6133 41.7858L54.8925 44.2702ZM60.2359 43.6941L63.0245 43.3839L62.7451 40.8996L59.9565 41.2098L60.2359 43.6941Z" fill="#0F375A"/>
<path fill-rule="evenodd" clip-rule="evenodd" d="M91.8931 41.3033L97.0121 78.501L97.4726 82.2328C97.621 83.435 96.7734 84.5278 95.5795 84.6737L63.6948 88.5693C62.5009 88.7152 61.4129 87.8588 61.2645 86.6566L56.4061 47.2828C56.2708 46.1865 57.05 45.1893 58.1464 45.0553L61.3125 44.6685" fill="#E8F0FE"/>
<path d="M66.1064 34.25C66.1064 32.7312 67.3377 31.5 68.8564 31.5H94.3435C95.0702 31.5 95.7674 31.7876 96.2827 32.3001L97.1641 31.4137L96.2827 32.3001L103.532 39.5087C104.051 40.0249 104.342 40.7267 104.342 41.4587V77.07C104.342 78.5888 103.111 79.82 101.592 79.82H68.8564C67.3377 79.82 66.1064 78.5888 66.1064 77.07V34.25Z" fill="white" stroke="#0F375A" stroke-width="2.5"/>
<path d="M95.2565 31.7041V38.7204C95.2565 39.7228 96.0731 40.5354 97.0805 40.5354H101.904" stroke="#0F375A" stroke-width="2.5" stroke-linecap="round" stroke-linejoin="round"/>
<path d="M71.7439 71.3902H87.5519M71.7439 40.5352H87.5519H71.7439ZM71.7439 47.7952H97.8879H71.7439ZM71.7439 55.6602H97.8879H71.7439ZM71.7439 63.5252H97.8879H71.7439Z" stroke="#0F375A" stroke-width="2.5" stroke-linecap="round" stroke-linejoin="round"/>
</svg>
