<svg width="41" height="41" viewBox="0 0 41 41" fill="none" xmlns="http://www.w3.org/2000/svg">
<rect width="40.6522" height="40.6522" rx="5.80391" fill="#F9EED9"/>
<path d="M12 25V16.2C12 15.0799 12 14.5198 12.218 14.092C12.4097 13.7157 12.7157 13.4097 13.092 13.218C13.5198 13 14.0799 13 15.2 13H26.8C27.9201 13 28.4802 13 28.908 13.218C29.2843 13.4097 29.5903 13.7157 29.782 14.092C30 14.5198 30 15.0799 30 16.2V25H24.6627C24.4182 25 24.2959 25 24.1808 25.0276C24.0787 25.0521 23.9812 25.0925 23.8917 25.1474C23.7908 25.2092 23.7043 25.2957 23.5314 25.4686L23.4686 25.5314C23.2957 25.7043 23.2092 25.7908 23.1083 25.8526C23.0188 25.9075 22.9213 25.9479 22.8192 25.9724C22.7041 26 22.5818 26 22.3373 26H19.6627C19.4182 26 19.2959 26 19.1808 25.9724C19.0787 25.9479 18.9812 25.9075 18.8917 25.8526C18.7908 25.7908 18.7043 25.7043 18.5314 25.5314L18.4686 25.4686C18.2957 25.2957 18.2092 25.2092 18.1083 25.1474C18.0188 25.0925 17.9213 25.0521 17.8192 25.0276C17.7041 25 17.5818 25 17.3373 25H12ZM12 25C11.4477 25 11 25.4477 11 26V26.3333C11 26.9533 11 27.2633 11.0681 27.5176C11.2531 28.2078 11.7922 28.7469 12.4824 28.9319C12.7367 29 13.0467 29 13.6667 29H28.3333C28.9533 29 29.2633 29 29.5176 28.9319C30.2078 28.7469 30.7469 28.2078 30.9319 27.5176C31 27.2633 31 26.9533 31 26.3333C31 26.0233 31 25.8683 30.9659 25.7412C30.8735 25.3961 30.6039 25.1265 30.2588 25.0341C30.1317 25 29.9767 25 29.6667 25H29" stroke="#F9AF21" stroke-width="1.5" stroke-linecap="round" stroke-linejoin="round"/>
</svg>
