<svg width="183" height="180" viewBox="0 0 183 180" fill="none" xmlns="http://www.w3.org/2000/svg">
<path d="M9.5625 0.526367H0.9375V9.04188H9.5625V0.526367Z" fill="#0F375A"/>
<path d="M18.1875 0.526367H9.5625V9.04188H18.1875V0.526367Z" fill="#0F375A"/>
<path d="M26.8125 0.526367H18.1875V9.04188H26.8125V0.526367Z" fill="#0F375A"/>
<path d="M35.4375 0.526367H26.8125V9.04188H35.4375V0.526367Z" fill="#0F375A"/>
<path d="M44.0625 0.526367H35.4375V9.04188H44.0625V0.526367Z" fill="#0F375A"/>
<path d="M52.6875 0.526367H44.0625V9.04188H52.6875V0.526367Z" fill="#0F375A"/>
<path d="M61.3125 0.526367H52.6875V9.04188H61.3125V0.526367Z" fill="#0F375A"/>
<path d="M78.5625 0.526367H69.9375V9.04188H78.5625V0.526367Z" fill="#0F375A"/>
<path d="M87.1875 0.526367H78.5625V9.04188H87.1875V0.526367Z" fill="#0F375A"/>
<path d="M95.8125 0.526367H87.1875V9.04188H95.8125V0.526367Z" fill="#0F375A"/>
<path d="M113.062 0.526367H104.438V9.04188H113.062V0.526367Z" fill="#0F375A"/>
<path d="M130.312 0.526367H121.687V9.04188H130.312V0.526367Z" fill="#0F375A"/>
<path d="M138.938 0.526367H130.312V9.04188H138.938V0.526367Z" fill="#0F375A"/>
<path d="M147.562 0.526367H138.938V9.04188H147.562V0.526367Z" fill="#0F375A"/>
<path d="M156.188 0.526367H147.562V9.04188H156.188V0.526367Z" fill="#0F375A"/>
<path d="M164.812 0.526367H156.188V9.04188H164.812V0.526367Z" fill="#0F375A"/>
<path d="M173.437 0.526367H164.812V9.04188H173.437V0.526367Z" fill="#0F375A"/>
<path d="M182.062 0.526367H173.437V9.04188H182.062V0.526367Z" fill="#0F375A"/>
<path d="M9.5625 9.04188H0.9375V17.5574H9.5625V9.04188Z" fill="#0F375A"/>
<path d="M61.3125 9.04188H52.6875V17.5574H61.3125V9.04188Z" fill="#0F375A"/>
<path d="M87.1875 9.04188H78.5625L78.5625 17.5574H87.1875V9.04188Z" fill="#0F375A"/>
<path d="M95.8125 9.04188H87.1875V17.5574H95.8125V9.04188Z" fill="#0F375A"/>
<path d="M113.062 9.04188H104.438V17.5574H113.062V9.04188Z" fill="#0F375A"/>
<path d="M130.312 9.04188H121.687V17.5574H130.312V9.04188Z" fill="#0F375A"/>
<path d="M182.062 9.04188H173.437V17.5574H182.062V9.04188Z" fill="#0F375A"/>
<path d="M9.5625 17.5574H0.9375V26.0729H9.5625V17.5574Z" fill="#0F375A"/>
<path d="M26.8125 17.5574H18.1875V26.0729H26.8125V17.5574Z" fill="#0F375A"/>
<path d="M35.4375 17.5574H26.8125V26.0729H35.4375V17.5574Z" fill="#0F375A"/>
<path d="M44.0625 17.5574H35.4375V26.0729H44.0625V17.5574Z" fill="#0F375A"/>
<path d="M61.3125 17.5574H52.6875V26.0729H61.3125V17.5574Z" fill="#0F375A"/>
<path d="M87.1875 17.5574H78.5625V26.0729H87.1875V17.5574Z" fill="#0F375A"/>
<path d="M104.438 17.5574H95.8125L95.8125 26.0729H104.438V17.5574Z" fill="#0F375A"/>
<path d="M113.062 17.5574H104.438V26.0729H113.062V17.5574Z" fill="#0F375A"/>
<path d="M130.312 17.5574H121.687V26.0729H130.312V17.5574Z" fill="#0F375A"/>
<path d="M147.562 17.5574H138.938V26.0729H147.562V17.5574Z" fill="#0F375A"/>
<path d="M156.188 17.5574H147.562V26.0729H156.188V17.5574Z" fill="#0F375A"/>
<path d="M164.812 17.5574H156.188V26.0729H164.812V17.5574Z" fill="#0F375A"/>
<path d="M182.062 17.5574H173.437V26.0729H182.062V17.5574Z" fill="#0F375A"/>
<path d="M9.5625 26.0729H0.9375V34.5884H9.5625V26.0729Z" fill="#0F375A"/>
<path d="M26.8125 26.0729H18.1875V34.5884H26.8125V26.0729Z" fill="#0F375A"/>
<path d="M35.4375 26.0729H26.8125V34.5884H35.4375V26.0729Z" fill="#0F375A"/>
<path d="M44.0625 26.0729H35.4375V34.5884H44.0625V26.0729Z" fill="#0F375A"/>
<path d="M61.3125 26.0729H52.6875V34.5884H61.3125V26.0729Z" fill="#0F375A"/>
<path d="M78.5625 26.0729H69.9375V34.5884H78.5625L78.5625 26.0729Z" fill="#0F375A"/>
<path d="M87.1875 26.0729H78.5625L78.5625 34.5884H87.1875V26.0729Z" fill="#0F375A"/>
<path d="M130.312 26.0729H121.687V34.5884H130.312V26.0729Z" fill="#0F375A"/>
<path d="M147.562 26.0729H138.938V34.5884H147.562V26.0729Z" fill="#0F375A"/>
<path d="M156.188 26.0729H147.562V34.5884H156.188V26.0729Z" fill="#0F375A"/>
<path d="M164.812 26.0729H156.188V34.5884H164.812V26.0729Z" fill="#0F375A"/>
<path d="M182.062 26.0729H173.437V34.5884H182.062V26.0729Z" fill="#0F375A"/>
<path d="M9.5625 34.5884H0.9375V43.1039H9.5625V34.5884Z" fill="#0F375A"/>
<path d="M26.8125 34.5884H18.1875V43.1039H26.8125V34.5884Z" fill="#0F375A"/>
<path d="M35.4375 34.5884H26.8125V43.1039H35.4375V34.5884Z" fill="#0F375A"/>
<path d="M44.0625 34.5884H35.4375V43.1039H44.0625V34.5884Z" fill="#0F375A"/>
<path d="M61.3125 34.5884H52.6875V43.1039H61.3125V34.5884Z" fill="#0F375A"/>
<path d="M78.5625 34.5884H69.9375V43.1039H78.5625V34.5884Z" fill="#0F375A"/>
<path d="M87.1875 34.5884H78.5625V43.1039H87.1875V34.5884Z" fill="#0F375A"/>
<path d="M104.438 34.5884H95.8125V43.1039H104.438V34.5884Z" fill="#0F375A"/>
<path d="M113.062 34.5884H104.438V43.1039H113.062V34.5884Z" fill="#0F375A"/>
<path d="M130.312 34.5884H121.687V43.1039H130.312V34.5884Z" fill="#0F375A"/>
<path d="M147.562 34.5884H138.938V43.1039H147.562V34.5884Z" fill="#0F375A"/>
<path d="M156.188 34.5884H147.562V43.1039H156.188V34.5884Z" fill="#0F375A"/>
<path d="M164.812 34.5884H156.188V43.1039H164.812V34.5884Z" fill="#0F375A"/>
<path d="M182.062 34.5884H173.437V43.1039H182.062V34.5884Z" fill="#0F375A"/>
<path d="M9.5625 43.1039H0.9375V51.6195H9.5625V43.1039Z" fill="#0F375A"/>
<path d="M61.3125 43.1039H52.6875V51.6195H61.3125V43.1039Z" fill="#0F375A"/>
<path d="M78.5625 43.1039H69.9375V51.6195H78.5625V43.1039Z" fill="#0F375A"/>
<path d="M87.1875 43.1039H78.5625V51.6195H87.1875V43.1039Z" fill="#0F375A"/>
<path d="M95.8125 43.1039H87.1875V51.6195H95.8125L95.8125 43.1039Z" fill="#0F375A"/>
<path d="M130.312 43.1039H121.687V51.6195H130.312V43.1039Z" fill="#0F375A"/>
<path d="M182.062 43.1039H173.437V51.6195H182.062V43.1039Z" fill="#0F375A"/>
<path d="M9.5625 51.6195H0.9375V60.135H9.5625V51.6195Z" fill="#0F375A"/>
<path d="M18.1875 51.6195H9.5625V60.135H18.1875V51.6195Z" fill="#0F375A"/>
<path d="M26.8125 51.6195H18.1875V60.135H26.8125V51.6195Z" fill="#0F375A"/>
<path d="M35.4375 51.6195H26.8125V60.135H35.4375V51.6195Z" fill="#0F375A"/>
<path d="M44.0625 51.6195H35.4375V60.135H44.0625V51.6195Z" fill="#0F375A"/>
<path d="M52.6875 51.6195H44.0625V60.135H52.6875V51.6195Z" fill="#0F375A"/>
<path d="M61.3125 51.6195H52.6875V60.135H61.3125V51.6195Z" fill="#0F375A"/>
<path d="M78.5625 51.6195H69.9375V60.135H78.5625V51.6195Z" fill="#0F375A"/>
<path d="M95.8125 51.6195H87.1875V60.135H95.8125V51.6195Z" fill="#0F375A"/>
<path d="M113.062 51.6195H104.438V60.135H113.062V51.6195Z" fill="#0F375A"/>
<path d="M130.312 51.6195H121.687V60.135H130.312V51.6195Z" fill="#0F375A"/>
<path d="M138.938 51.6195H130.312V60.135H138.938V51.6195Z" fill="#0F375A"/>
<path d="M147.562 51.6195H138.938V60.135H147.562V51.6195Z" fill="#0F375A"/>
<path d="M156.188 51.6195H147.562V60.135H156.188V51.6195Z" fill="#0F375A"/>
<path d="M164.812 51.6195H156.188V60.135H164.812V51.6195Z" fill="#0F375A"/>
<path d="M173.437 51.6195H164.812V60.135H173.437V51.6195Z" fill="#0F375A"/>
<path d="M182.062 51.6195H173.437V60.135H182.062V51.6195Z" fill="#0F375A"/>
<path d="M78.5625 60.135H69.9375V68.6505H78.5625V60.135Z" fill="#0F375A"/>
<path d="M113.062 60.135H104.438V68.6505H113.062V60.135Z" fill="#0F375A"/>
<path d="M9.5625 68.6505H0.9375V77.166H9.5625V68.6505Z" fill="#0F375A"/>
<path d="M18.1875 68.6505H9.5625V77.166H18.1875V68.6505Z" fill="#0F375A"/>
<path d="M26.8125 68.6505H18.1875V77.166H26.8125V68.6505Z" fill="#0F375A"/>
<path d="M44.0625 68.6505H35.4375V77.166H44.0625V68.6505Z" fill="#0F375A"/>
<path d="M61.3125 68.6505H52.6875V77.166H61.3125V68.6505Z" fill="#0F375A"/>
<path d="M78.5625 68.6505H69.9375V77.166H78.5625V68.6505Z" fill="#0F375A"/>
<path d="M87.1875 68.6505H78.5625V77.166H87.1875V68.6505Z" fill="#0F375A"/>
<path d="M104.438 68.6505H95.8125V77.166H104.438V68.6505Z" fill="#0F375A"/>
<path d="M113.062 68.6505H104.438V77.166H113.062V68.6505Z" fill="#0F375A"/>
<path d="M121.687 68.6505H113.062V77.166H121.687V68.6505Z" fill="#0F375A"/>
<path d="M130.312 68.6505H121.687V77.166H130.312V68.6505Z" fill="#0F375A"/>
<path d="M138.938 68.6505H130.312V77.166H138.938V68.6505Z" fill="#0F375A"/>
<path d="M147.562 68.6505H138.938V77.166H147.562V68.6505Z" fill="#0F375A"/>
<path d="M156.188 68.6505H147.562V77.166H156.188V68.6505Z" fill="#0F375A"/>
<path d="M182.062 68.6505H173.437V77.166H182.062V68.6505Z" fill="#0F375A"/>
<path d="M9.5625 77.166H0.9375V85.6815H9.5625V77.166Z" fill="#0F375A"/>
<path d="M26.8125 77.166H18.1875V85.6815H26.8125V77.166Z" fill="#0F375A"/>
<path d="M35.4375 77.166H26.8125V85.6815H35.4375V77.166Z" fill="#0F375A"/>
<path d="M52.6875 77.166H44.0625V85.6815H52.6875V77.166Z" fill="#0F375A"/>
<path d="M69.9375 77.166H61.3125V85.6815H69.9375L69.9375 77.166Z" fill="#0F375A"/>
<path d="M78.5625 77.166H69.9375L69.9375 85.6815H78.5625V77.166Z" fill="#0F375A"/>
<path d="M95.8125 77.166H87.1875V85.6815H95.8125L95.8125 77.166Z" fill="#0F375A"/>
<path d="M104.438 77.166H95.8125L95.8125 85.6815H104.438V77.166Z" fill="#0F375A"/>
<path d="M121.687 77.166H113.062V85.6815H121.687V77.166Z" fill="#0F375A"/>
<path d="M138.938 77.166H130.312V85.6815H138.938V77.166Z" fill="#0F375A"/>
<path d="M156.188 77.166H147.562V85.6815H156.188V77.166Z" fill="#0F375A"/>
<path d="M164.812 77.166L156.188 77.166V85.6815H164.812V77.166Z" fill="#0F375A"/>
<path d="M182.062 77.166H173.437V85.6815H182.062V77.166Z" fill="#0F375A"/>
<path d="M35.4375 85.6815H26.8125V94.197H35.4375V85.6815Z" fill="#0F375A"/>
<path d="M61.3125 85.6815H52.6875V94.197H61.3125V85.6815Z" fill="#0F375A"/>
<path d="M78.5625 85.6815H69.9375L69.9375 94.197H78.5625V85.6815Z" fill="#0F375A"/>
<path d="M113.062 85.6815H104.438V94.197H113.062V85.6815Z" fill="#0F375A"/>
<path d="M121.687 85.6815H113.062V94.197H121.687V85.6815Z" fill="#0F375A"/>
<path d="M130.312 85.6815H121.687V94.197H130.312V85.6815Z" fill="#0F375A"/>
<path d="M156.188 85.6815H147.562V94.197H156.188V85.6815Z" fill="#0F375A"/>
<path d="M9.5625 94.197H0.9375V102.713H9.5625V94.197Z" fill="#0F375A"/>
<path d="M18.1875 94.197H9.5625V102.713H18.1875V94.197Z" fill="#0F375A"/>
<path d="M35.4375 94.197H26.8125V102.713H35.4375V94.197Z" fill="#0F375A"/>
<path d="M52.6875 94.197L44.0625 94.197V102.713H52.6875V94.197Z" fill="#0F375A"/>
<path d="M69.9375 94.197H61.3125V102.713H69.9375L69.9375 94.197Z" fill="#0F375A"/>
<path d="M104.438 94.197L95.8125 94.197V102.713H104.438V94.197Z" fill="#0F375A"/>
<path d="M121.687 94.197H113.062V102.713H121.687V94.197Z" fill="#0F375A"/>
<path d="M138.938 94.197L130.312 94.197V102.713H138.938V94.197Z" fill="#0F375A"/>
<path d="M147.562 94.197L138.938 94.197V102.713H147.562V94.197Z" fill="#0F375A"/>
<path d="M156.188 94.197H147.562V102.713H156.188V94.197Z" fill="#0F375A"/>
<path d="M182.062 94.197H173.437V102.713H182.062V94.197Z" fill="#0F375A"/>
<path d="M9.5625 102.713H0.9375V111.228H9.5625V102.713Z" fill="#0F375A"/>
<path d="M18.1875 102.713H9.5625V111.228H18.1875V102.713Z" fill="#0F375A"/>
<path d="M26.8125 102.713H18.1875V111.228H26.8125V102.713Z" fill="#0F375A"/>
<path d="M35.4375 102.713H26.8125V111.228H35.4375V102.713Z" fill="#0F375A"/>
<path d="M44.0625 102.713H35.4375V111.228H44.0625V102.713Z" fill="#0F375A"/>
<path d="M52.6875 102.713H44.0625V111.228H52.6875V102.713Z" fill="#0F375A"/>
<path d="M61.3125 102.713H52.6875V111.228H61.3125V102.713Z" fill="#0F375A"/>
<path d="M69.9375 102.713H61.3125V111.228H69.9375V102.713Z" fill="#0F375A"/>
<path d="M78.5625 102.713H69.9375V111.228H78.5625V102.713Z" fill="#0F375A"/>
<path d="M87.1875 102.713H78.5625V111.228H87.1875V102.713Z" fill="#0F375A"/>
<path d="M121.687 102.713H113.062V111.228H121.687V102.713Z" fill="#0F375A"/>
<path d="M130.312 102.713H121.687V111.228H130.312V102.713Z" fill="#0F375A"/>
<path d="M138.938 102.713H130.312V111.228H138.938V102.713Z" fill="#0F375A"/>
<path d="M147.562 102.713H138.938V111.228H147.562V102.713Z" fill="#0F375A"/>
<path d="M156.188 102.713H147.562V111.228H156.188V102.713Z" fill="#0F375A"/>
<path d="M78.5625 111.228H69.9375L69.9375 119.744H78.5625V111.228Z" fill="#0F375A"/>
<path d="M104.438 111.228H95.8125V119.744H104.438V111.228Z" fill="#0F375A"/>
<path d="M121.687 111.228H113.062V119.744H121.687V111.228Z" fill="#0F375A"/>
<path d="M138.938 111.228H130.312V119.744H138.938V111.228Z" fill="#0F375A"/>
<path d="M147.562 111.228H138.938V119.744H147.562V111.228Z" fill="#0F375A"/>
<path d="M164.812 111.228H156.188V119.744H164.812V111.228Z" fill="#0F375A"/>
<path d="M173.437 111.228H164.812V119.744H173.437V111.228Z" fill="#0F375A"/>
<path d="M182.062 111.228H173.437V119.744H182.062V111.228Z" fill="#0F375A"/>
<path d="M9.5625 119.744H0.9375V128.259H9.5625V119.744Z" fill="#0F375A"/>
<path d="M18.1875 119.744H9.5625V128.259H18.1875V119.744Z" fill="#0F375A"/>
<path d="M26.8125 119.744H18.1875V128.259H26.8125V119.744Z" fill="#0F375A"/>
<path d="M35.4375 119.744H26.8125V128.259H35.4375V119.744Z" fill="#0F375A"/>
<path d="M44.0625 119.744H35.4375V128.259H44.0625V119.744Z" fill="#0F375A"/>
<path d="M52.6875 119.744H44.0625V128.259H52.6875V119.744Z" fill="#0F375A"/>
<path d="M61.3125 119.744H52.6875V128.259H61.3125V119.744Z" fill="#0F375A"/>
<path d="M87.1875 119.744H78.5625L78.5625 128.259H87.1875V119.744Z" fill="#0F375A"/>
<path d="M95.8125 119.744H87.1875V128.259H95.8125L95.8125 119.744Z" fill="#0F375A"/>
<path d="M113.062 119.744H104.438V128.259H113.062V119.744Z" fill="#0F375A"/>
<path d="M121.687 119.744H113.062V128.259H121.687V119.744Z" fill="#0F375A"/>
<path d="M138.938 119.744H130.312V128.259H138.938V119.744Z" fill="#0F375A"/>
<path d="M147.562 119.744H138.938V128.259H147.562V119.744Z" fill="#0F375A"/>
<path d="M173.437 119.744H164.812V128.259H173.437V119.744Z" fill="#0F375A"/>
<path d="M9.5625 128.259H0.9375V136.775H9.5625V128.259Z" fill="#0F375A"/>
<path d="M61.3125 128.259H52.6875V136.775H61.3125V128.259Z" fill="#0F375A"/>
<path d="M95.8125 128.259H87.1875V136.775H95.8125V128.259Z" fill="#0F375A"/>
<path d="M104.438 128.259H95.8125V136.775H104.438V128.259Z" fill="#0F375A"/>
<path d="M113.062 128.259H104.438V136.775H113.062V128.259Z" fill="#0F375A"/>
<path d="M121.687 128.259H113.062V136.775H121.687V128.259Z" fill="#0F375A"/>
<path d="M138.938 128.259H130.312V136.775H138.938V128.259Z" fill="#0F375A"/>
<path d="M147.562 128.259H138.938V136.775H147.562V128.259Z" fill="#0F375A"/>
<path d="M182.062 128.259H173.437V136.775H182.062V128.259Z" fill="#0F375A"/>
<path d="M9.5625 136.775H0.9375V145.29H9.5625V136.775Z" fill="#0F375A"/>
<path d="M26.8125 136.775H18.1875V145.29H26.8125V136.775Z" fill="#0F375A"/>
<path d="M35.4375 136.775H26.8125V145.29H35.4375V136.775Z" fill="#0F375A"/>
<path d="M44.0625 136.775H35.4375V145.29H44.0625V136.775Z" fill="#0F375A"/>
<path d="M61.3125 136.775H52.6875V145.29H61.3125V136.775Z" fill="#0F375A"/>
<path d="M78.5625 136.775H69.9375V145.29H78.5625V136.775Z" fill="#0F375A"/>
<path d="M113.062 136.775H104.438V145.29H113.062V136.775Z" fill="#0F375A"/>
<path d="M121.687 136.775H113.062V145.29H121.687V136.775Z" fill="#0F375A"/>
<path d="M130.312 136.775H121.687V145.29H130.312V136.775Z" fill="#0F375A"/>
<path d="M138.938 136.775H130.312V145.29H138.938V136.775Z" fill="#0F375A"/>
<path d="M147.562 136.775H138.938V145.29H147.562V136.775Z" fill="#0F375A"/>
<path d="M164.812 136.775H156.188V145.29H164.812V136.775Z" fill="#0F375A"/>
<path d="M182.062 136.775H173.437V145.29H182.062V136.775Z" fill="#0F375A"/>
<path d="M9.5625 145.29H0.9375V153.806H9.5625V145.29Z" fill="#0F375A"/>
<path d="M26.8125 145.29H18.1875V153.806H26.8125V145.29Z" fill="#0F375A"/>
<path d="M35.4375 145.29H26.8125V153.806H35.4375V145.29Z" fill="#0F375A"/>
<path d="M44.0625 145.29H35.4375V153.806H44.0625V145.29Z" fill="#0F375A"/>
<path d="M61.3125 145.29H52.6875V153.806H61.3125V145.29Z" fill="#0F375A"/>
<path d="M95.8125 145.29H87.1875V153.806H95.8125V145.29Z" fill="#0F375A"/>
<path d="M113.062 145.29H104.438V153.806H113.062V145.29Z" fill="#0F375A"/>
<path d="M130.312 145.29H121.687V153.806H130.312V145.29Z" fill="#0F375A"/>
<path d="M138.938 145.29H130.312V153.806H138.938V145.29Z" fill="#0F375A"/>
<path d="M156.188 145.29H147.562V153.806H156.188V145.29Z" fill="#0F375A"/>
<path d="M9.5625 153.806H0.9375V162.321H9.5625V153.806Z" fill="#0F375A"/>
<path d="M26.8125 153.806H18.1875V162.321H26.8125V153.806Z" fill="#0F375A"/>
<path d="M35.4375 153.806H26.8125V162.321H35.4375V153.806Z" fill="#0F375A"/>
<path d="M44.0625 153.806H35.4375V162.321H44.0625V153.806Z" fill="#0F375A"/>
<path d="M61.3125 153.806H52.6875V162.321H61.3125V153.806Z" fill="#0F375A"/>
<path d="M78.5625 153.806H69.9375V162.321H78.5625V153.806Z" fill="#0F375A"/>
<path d="M95.8125 153.806H87.1875V162.321H95.8125V153.806Z" fill="#0F375A"/>
<path d="M104.438 153.806H95.8125V162.321H104.438V153.806Z" fill="#0F375A"/>
<path d="M130.312 153.806H121.687V162.321H130.312V153.806Z" fill="#0F375A"/>
<path d="M138.938 153.806H130.312V162.321H138.938V153.806Z" fill="#0F375A"/>
<path d="M156.188 153.806H147.562V162.321H156.188V153.806Z" fill="#0F375A"/>
<path d="M173.437 153.806H164.812V162.321H173.437V153.806Z" fill="#0F375A"/>
<path d="M9.5625 162.321H0.9375V170.837H9.5625V162.321Z" fill="#0F375A"/>
<path d="M61.3125 162.321H52.6875V170.837H61.3125V162.321Z" fill="#0F375A"/>
<path d="M78.5625 162.321H69.9375V170.837H78.5625V162.321Z" fill="#0F375A"/>
<path d="M95.8125 162.321H87.1875V170.837H95.8125V162.321Z" fill="#0F375A"/>
<path d="M164.812 162.321H156.188V170.837H164.812V162.321Z" fill="#0F375A"/>
<path d="M173.437 162.321H164.812V170.837H173.437V162.321Z" fill="#0F375A"/>
<path d="M9.5625 170.837H0.9375V179.352H9.5625V170.837Z" fill="#0F375A"/>
<path d="M18.1875 170.837H9.5625V179.352H18.1875V170.837Z" fill="#0F375A"/>
<path d="M26.8125 170.837H18.1875V179.352H26.8125V170.837Z" fill="#0F375A"/>
<path d="M35.4375 170.837H26.8125V179.352H35.4375V170.837Z" fill="#0F375A"/>
<path d="M44.0625 170.837H35.4375V179.352H44.0625V170.837Z" fill="#0F375A"/>
<path d="M52.6875 170.837H44.0625V179.352H52.6875V170.837Z" fill="#0F375A"/>
<path d="M61.3125 170.837H52.6875V179.352H61.3125V170.837Z" fill="#0F375A"/>
<path d="M78.5625 170.837H69.9375V179.352H78.5625V170.837Z" fill="#0F375A"/>
<path d="M95.8125 170.837H87.1875V179.352H95.8125V170.837Z" fill="#0F375A"/>
<path d="M113.062 170.837H104.438V179.352H113.062V170.837Z" fill="#0F375A"/>
<path d="M121.687 170.837H113.062V179.352H121.687V170.837Z" fill="#0F375A"/>
<path d="M164.812 170.837H156.188V179.352H164.812V170.837Z" fill="#0F375A"/>
<path d="M173.437 170.837H164.812V179.352H173.437V170.837Z" fill="#0F375A"/>
</svg>
