<svg width="95" height="95" viewBox="0 0 95 95" fill="none" xmlns="http://www.w3.org/2000/svg">
<circle cx="47.5" cy="47.5" r="47.5" fill="#ECFDF3"/>
<circle cx="48" cy="48" r="34" fill="#D1FADF"/>
<path d="M61.3337 46.7745V48.0011C61.332 50.8764 60.401 53.674 58.6794 55.9769C56.9579 58.2798 54.538 59.9644 51.7808 60.7797C49.0236 61.5949 46.0767 61.497 43.3796 60.5006C40.6826 59.5041 38.3799 57.6626 36.8149 55.2505C35.25 52.8385 34.5067 49.9852 34.6959 47.1162C34.8851 44.2472 35.9966 41.5162 37.8647 39.3306C39.7328 37.1449 42.2574 35.6216 45.0619 34.988C47.8664 34.3543 50.8007 34.6442 53.427 35.8145M61.3337 37.3345L48.0003 50.6811L44.0003 46.6811" stroke="#039855" stroke-width="2" stroke-linecap="round" stroke-linejoin="round"/>
</svg>
