<svg width="41" height="41" viewBox="0 0 41 41" fill="none" xmlns="http://www.w3.org/2000/svg">
<rect width="40.6522" height="40.6522" rx="5.80391" fill="#DBF1F9"/>
<path d="M27 24.8369C28.4559 25.5683 29.7041 26.742 30.6152 28.2096C30.7956 28.5003 30.8858 28.6456 30.917 28.8468C30.9804 29.2558 30.7008 29.7585 30.3199 29.9204C30.1325 30 29.9216 30 29.5 30M25 20.5322C26.4817 19.7959 27.5 18.2669 27.5 16.5C27.5 14.7331 26.4817 13.2041 25 12.4678M23 16.5C23 18.9853 20.9852 21 18.5 21C16.0147 21 14 18.9853 14 16.5C14 14.0147 16.0147 12 18.5 12C20.9852 12 23 14.0147 23 16.5ZM11.5592 27.9383C13.1535 25.5446 15.6693 24 18.5 24C21.3306 24 23.8464 25.5446 25.4407 27.9383C25.79 28.4628 25.9646 28.725 25.9445 29.0599C25.9289 29.3207 25.7579 29.64 25.5495 29.7976C25.2819 30 24.9138 30 24.1776 30H12.8223C12.0861 30 11.718 30 11.4504 29.7976C11.242 29.64 11.071 29.3207 11.0554 29.0599C11.0353 28.725 11.2099 28.4628 11.5592 27.9383Z" stroke="#006FFD" stroke-width="1.5" stroke-linecap="round" stroke-linejoin="round"/>
</svg>
